<?xml version="1.0" encoding="utf-8"?>
<!-- Generator: Adobe Illustrator 25.0.0, SVG Export Plug-In . SVG Version: 6.00 Build 0)  -->
<svg version="1.1" id="Calque_1" xmlns="http://www.w3.org/2000/svg" xmlns:xlink="http://www.w3.org/1999/xlink" x="0px" y="0px"
	 viewBox="0 0 97.24 97.24" style="enable-background:new 0 0 97.24 97.24;" xml:space="preserve">
<style type="text/css">
	.st0{opacity:0;clip-path:url(#SVGID_2_);}
	.st1{fill:#E52629;}
	.st2{opacity:0.0769;clip-path:url(#SVGID_2_);}
	.st3{fill:#E62B29;}
	.st4{opacity:0.1538;clip-path:url(#SVGID_2_);}
	.st5{fill:#E63029;}
	.st6{opacity:0.2308;clip-path:url(#SVGID_2_);}
	.st7{fill:#E63429;}
	.st8{opacity:0.3077;clip-path:url(#SVGID_2_);}
	.st9{fill:#E73829;}
	.st10{opacity:0.3846;clip-path:url(#SVGID_2_);}
	.st11{fill:#E73C29;}
	.st12{opacity:0.4615;clip-path:url(#SVGID_2_);}
	.st13{fill:#E84029;}
	.st14{opacity:0.5385;clip-path:url(#SVGID_2_);}
	.st15{fill:#E84429;}
	.st16{opacity:0.6154;clip-path:url(#SVGID_2_);}
	.st17{fill:#E84829;}
	.st18{opacity:0.6923;clip-path:url(#SVGID_2_);}
	.st19{fill:#E94C28;}
	.st20{opacity:0.7692;clip-path:url(#SVGID_2_);}
	.st21{fill:#E95028;}
	.st22{opacity:0.8462;clip-path:url(#SVGID_2_);}
	.st23{fill:#EA5428;}
	.st24{opacity:0.9231;clip-path:url(#SVGID_2_);}
	.st25{fill:#EA5828;}
	.st26{clip-path:url(#SVGID_2_);}
	.st27{fill:#EB5B28;}
	.st28{fill:none;stroke:#E84029;stroke-width:0.154;stroke-miterlimit:10;}
	.st29{fill:none;stroke:#E84329;stroke-width:0.1766;stroke-miterlimit:10;}
	.st30{fill:none;stroke:#E84629;stroke-width:0.1993;stroke-miterlimit:10;}
	.st31{fill:none;stroke:#E84829;stroke-width:0.222;stroke-miterlimit:10;}
</style>
<g>
	<defs>
		<rect id="SVGID_1_" width="97.24" height="97.24"/>
	</defs>
	<clipPath id="SVGID_2_">
		<use xlink:href="#SVGID_1_"  style="overflow:visible;"/>
	</clipPath>
	<g id="XMLID_6_" class="st0">
		<path class="st1" d="M5.97,194.82c-2.78,0-5.7-1.01-8.9-3.09c-3.12-2.02-6.21-4.84-9.2-7.56c-4.51-4.1-9.17-8.35-14.03-9.98
			c-4.6-1.54-10.4-0.99-16.55-0.4c-8.24,0.79-16.75,1.61-22.11-3.06c-5.35-4.67-5.71-13.22-6.05-21.48
			c-0.25-6.17-0.49-12-2.65-16.35c-2.28-4.59-7.12-8.63-11.8-12.54c-3.11-2.59-6.32-5.27-8.74-8.09c-2.72-3.16-4.14-6.16-4.35-9.17
			c-0.21-3.01,0.8-6.17,3.06-9.67c2.02-3.12,4.84-6.21,7.56-9.2c4.1-4.51,8.35-9.17,9.98-14.03c1.54-4.6,0.99-10.4,0.4-16.55
			c-0.79-8.24-1.61-16.75,3.06-22.11c4.67-5.35,13.22-5.71,21.48-6.05c6.17-0.25,12-0.49,16.35-2.65c4.59-2.28,8.63-7.12,12.54-11.8
			c2.59-3.11,5.27-6.32,8.09-8.74c3.16-2.72,6.16-4.14,9.17-4.35c3.01-0.21,6.17,0.79,9.67,3.06c3.12,2.02,6.21,4.84,9.2,7.56
			c4.51,4.1,9.17,8.35,14.03,9.98c4.6,1.54,10.4,0.99,16.55,0.4c8.24-0.79,16.75-1.61,22.11,3.06c5.35,4.67,5.71,13.22,6.05,21.48
			c0.25,6.17,0.49,12,2.65,16.35c2.28,4.59,7.12,8.63,11.8,12.54c3.11,2.59,6.32,5.27,8.74,8.09c2.72,3.16,4.14,6.16,4.35,9.17
			c0.21,3.01-0.79,6.17-3.06,9.67c-2.02,3.12-4.84,6.21-7.56,9.2c-4.1,4.51-8.35,9.17-9.98,14.03c-1.54,4.6-0.99,10.4-0.4,16.55
			c0.79,8.24,1.61,16.75-3.06,22.11c-4.67,5.35-13.22,5.71-21.48,6.05c-6.17,0.25-12,0.49-16.35,2.65
			c-4.59,2.28-8.63,7.12-12.54,11.8c-2.59,3.11-5.27,6.32-8.09,8.74c-3.16,2.72-6.16,4.14-9.17,4.35
			C6.48,194.81,6.23,194.82,5.97,194.82z M-33.55,173.15c2.68,0,5.18,0.26,7.4,1c4.87,1.64,9.54,5.88,14.05,9.99
			c2.99,2.72,6.08,5.54,9.2,7.56c3.49,2.26,6.65,3.26,9.64,3.05c3-0.21,5.99-1.63,9.14-4.34c2.81-2.42,5.49-5.63,8.08-8.74
			c3.91-4.68,7.95-9.53,12.55-11.81c4.35-2.16,10.19-2.4,16.36-2.65c8.26-0.34,16.79-0.69,21.45-6.03
			c4.65-5.34,3.84-13.85,3.05-22.07c-0.59-6.15-1.15-11.97,0.4-16.57c1.64-4.87,5.88-9.54,9.99-14.05c2.72-2.99,5.54-6.08,7.56-9.2
			c2.26-3.49,3.26-6.64,3.05-9.64c-0.21-3-1.63-5.99-4.34-9.14c-2.42-2.81-5.63-5.49-8.74-8.08c-4.68-3.91-9.53-7.95-11.81-12.55
			c-2.16-4.35-2.4-10.19-2.65-16.36c-0.34-8.26-0.69-16.79-6.03-21.45C59.45,17.4,50.95,18.22,42.72,19
			c-6.15,0.59-11.97,1.15-16.57-0.4c-4.87-1.64-9.54-5.88-14.05-9.99c-2.99-2.72-6.08-5.54-9.2-7.56C-0.58-1.2-3.74-2.2-6.74-1.99
			c-3,0.21-5.99,1.63-9.14,4.34c-2.81,2.42-5.49,5.63-8.08,8.74c-3.91,4.68-7.95,9.53-12.55,11.81c-4.35,2.16-10.19,2.4-16.36,2.65
			c-8.26,0.34-16.79,0.69-21.45,6.03l-0.02-0.02l0.02,0.02c-4.65,5.34-3.84,13.85-3.05,22.07c0.59,6.15,1.15,11.97-0.4,16.57
			c-1.64,4.87-5.88,9.54-9.99,14.05c-2.72,2.99-5.54,6.08-7.56,9.2c-2.26,3.49-3.26,6.64-3.05,9.64c0.21,3,1.63,5.99,4.34,9.14
			c2.42,2.81,5.63,5.49,8.74,8.08c4.68,3.91,9.53,7.95,11.81,12.55c2.16,4.35,2.4,10.19,2.65,16.36c0.34,8.26,0.69,16.79,6.03,21.45
			s13.85,3.84,22.07,3.05C-39.53,173.44-36.43,173.15-33.55,173.15z"/>
	</g>
	<g class="st2">
		<path class="st3" d="M6.91,190.89c-2.63,0-5.4-0.94-8.45-2.85c-3.03-1.9-6.04-4.57-8.96-7.15c-4.38-3.88-8.9-7.88-13.58-9.38
			c-4.44-1.42-10.02-0.81-15.93-0.16c-7.9,0.87-16.07,1.77-21.27-2.64c-5.2-4.41-5.65-12.61-6.09-20.53
			c-0.33-5.94-0.64-11.54-2.78-15.7c-2.25-4.38-6.95-8.18-11.49-11.87c-3.02-2.45-6.15-4.98-8.52-7.65c-2.66-3-4.07-5.87-4.31-8.76
			c-0.24-2.9,0.68-5.96,2.81-9.36c1.9-3.03,4.57-6.04,7.15-8.96c3.88-4.38,7.88-8.9,9.38-13.58c1.42-4.44,0.81-10.02,0.16-15.93
			c-0.87-7.9-1.77-16.07,2.64-21.27c4.41-5.2,12.61-5.65,20.53-6.09c5.94-0.33,11.54-0.64,15.7-2.78
			c4.38-2.25,8.18-6.95,11.87-11.49c2.45-3.02,4.98-6.15,7.65-8.52c3-2.66,5.87-4.07,8.76-4.31c2.9-0.24,5.96,0.68,9.36,2.81
			c3.03,1.9,6.04,4.57,8.96,7.15c4.38,3.88,8.9,7.88,13.58,9.38c4.44,1.42,10.02,0.81,15.93,0.16c7.9-0.87,16.07-1.77,21.27,2.64
			c5.2,4.41,5.65,12.61,6.09,20.53c0.33,5.94,0.64,11.54,2.78,15.7c2.25,4.38,6.95,8.18,11.49,11.87c3.02,2.45,6.15,4.98,8.52,7.65
			c2.66,3,4.07,5.87,4.31,8.76c0.24,2.9-0.68,5.96-2.81,9.36c-1.9,3.03-4.57,6.04-7.15,8.96c-3.88,4.38-7.88,8.9-9.38,13.58
			c-1.42,4.44-0.81,10.02-0.16,15.93c0.87,7.9,1.77,16.07-2.64,21.27c-4.41,5.2-12.6,5.65-20.53,6.09
			c-5.94,0.33-11.54,0.64-15.7,2.78l0,0c-4.38,2.25-8.18,6.95-11.87,11.49c-2.45,3.02-4.98,6.15-7.65,8.52
			c-3,2.66-5.87,4.07-8.76,4.31C7.52,190.88,7.22,190.89,6.91,190.89z M-30.65,170.59c2.38,0,4.6,0.23,6.59,0.87
			c4.69,1.5,9.22,5.52,13.61,9.4c2.91,2.58,5.92,5.25,8.95,7.14c3.39,2.13,6.44,3.04,9.32,2.8c2.88-0.24,5.74-1.65,8.73-4.3
			c2.67-2.37,5.2-5.49,7.65-8.51c3.69-4.55,7.5-9.26,11.89-11.51l0,0c4.16-2.14,9.78-2.46,15.72-2.79c7.92-0.44,16.1-0.9,20.49-6.07
			c4.39-5.18,3.5-13.34,2.63-21.23c-0.65-5.91-1.27-11.5,0.16-15.95c1.5-4.69,5.52-9.22,9.4-13.61c2.58-2.91,5.25-5.92,7.14-8.95
			c2.13-3.39,3.04-6.44,2.8-9.32c-0.24-2.88-1.65-5.74-4.3-8.73c-2.37-2.67-5.49-5.2-8.51-7.65c-4.55-3.69-9.26-7.5-11.51-11.89
			c-2.14-4.16-2.46-9.78-2.79-15.72c-0.44-7.92-0.9-16.1-6.07-20.49c-5.18-4.39-13.34-3.5-21.23-2.63
			c-5.91,0.65-11.5,1.27-15.95-0.16c-4.69-1.5-9.22-5.52-13.6-9.4C7.54,9.32,4.53,6.66,1.51,4.76c-3.39-2.13-6.44-3.04-9.32-2.8
			c-2.88,0.24-5.74,1.65-8.73,4.3c-2.67,2.37-5.2,5.49-7.65,8.51c-3.69,4.55-7.5,9.26-11.89,11.51c-4.16,2.14-9.78,2.46-15.72,2.79
			c-7.92,0.44-16.1,0.9-20.49,6.07c-4.39,5.18-3.5,13.34-2.63,21.23c0.65,5.91,1.27,11.5-0.16,15.95c-1.5,4.69-5.52,9.22-9.4,13.6
			c-2.58,2.91-5.25,5.92-7.14,8.95c-2.13,3.39-3.04,6.44-2.8,9.32c0.24,2.88,1.65,5.74,4.3,8.73c2.37,2.67,5.49,5.2,8.51,7.65
			c4.55,3.69,9.26,7.5,11.51,11.89c2.14,4.16,2.46,9.78,2.79,15.72c0.44,7.92,0.9,16.1,6.07,20.49c5.18,4.39,13.34,3.49,21.23,2.63
			C-36.75,170.94-33.58,170.59-30.65,170.59z"/>
	</g>
	<g class="st4">
		<path class="st5" d="M7.86,186.97c-2.48,0-5.11-0.86-8-2.61c-2.94-1.78-5.87-4.3-8.71-6.74c-4.25-3.65-8.64-7.42-13.14-8.79
			c-4.29-1.3-9.64-0.63-15.3,0.08c-7.56,0.95-15.39,1.93-20.43-2.22c-5.04-4.14-5.6-11.99-6.14-19.59
			c-0.41-5.7-0.79-11.08-2.91-15.05c-2.21-4.16-6.78-7.74-11.19-11.2c-2.94-2.31-5.97-4.69-8.29-7.22c-2.6-2.84-4-5.58-4.28-8.36
			c-0.28-2.79,0.56-5.74,2.56-9.05c1.78-2.94,4.3-5.87,6.74-8.71c3.65-4.25,7.42-8.64,8.79-13.14c1.3-4.29,0.63-9.64-0.08-15.3
			c-0.95-7.56-1.93-15.39,2.22-20.43c4.14-5.04,11.99-5.6,19.59-6.14c5.7-0.41,11.08-0.79,15.05-2.91
			c4.16-2.21,7.74-6.78,11.2-11.19c2.31-2.94,4.69-5.97,7.22-8.29c2.84-2.6,5.58-4,8.36-4.28C-6.12,5.56-3.16,6.4,0.14,8.4
			c2.94,1.78,5.87,4.3,8.71,6.74c4.25,3.65,8.64,7.42,13.14,8.79c4.29,1.3,9.64,0.63,15.3-0.08c7.56-0.95,15.39-1.93,20.43,2.22
			c5.04,4.14,5.6,11.99,6.14,19.59c0.41,5.7,0.79,11.08,2.91,15.05c2.21,4.16,6.78,7.74,11.19,11.2c2.94,2.31,5.97,4.69,8.29,7.22
			c2.6,2.84,4,5.58,4.28,8.36c0.28,2.79-0.56,5.74-2.56,9.05c-1.78,2.94-4.3,5.87-6.74,8.71c-3.65,4.25-7.42,8.64-8.79,13.14
			c-1.3,4.29-0.63,9.64,0.08,15.3c0.95,7.56,1.93,15.39-2.22,20.43c-4.14,5.04-11.99,5.6-19.59,6.14
			c-5.7,0.41-11.08,0.79-15.05,2.91h0c-4.16,2.21-7.74,6.78-11.2,11.19c-2.31,2.94-4.69,5.97-7.22,8.29c-2.84,2.6-5.58,4-8.36,4.28
			C8.56,186.95,8.21,186.97,7.86,186.97z M-27.8,168.02c2.09,0,4.05,0.2,5.83,0.74c4.51,1.37,8.91,5.15,13.16,8.8
			c2.84,2.43,5.77,4.95,8.7,6.73c3.29,1.99,6.23,2.83,9,2.55c2.77-0.28,5.49-1.67,8.32-4.26c2.53-2.31,4.91-5.35,7.21-8.28
			c3.47-4.42,7.05-8.99,11.22-11.21l0,0c3.97-2.13,9.37-2.51,15.07-2.92c7.58-0.54,15.41-1.1,19.54-6.12
			c4.13-5.02,3.15-12.83,2.2-20.38c-0.71-5.67-1.38-11.02-0.08-15.33c1.37-4.51,5.15-8.91,8.8-13.16c2.43-2.84,4.95-5.77,6.73-8.7
			c1.99-3.29,2.83-6.23,2.55-9c-0.28-2.77-1.67-5.49-4.26-8.32c-2.31-2.53-5.35-4.91-8.28-7.21c-4.42-3.47-8.99-7.05-11.21-11.22
			c-2.13-3.97-2.51-9.37-2.92-15.07c-0.54-7.58-1.1-15.41-6.12-19.54c-5.02-4.13-12.83-3.15-20.38-2.2
			c-5.67,0.71-11.02,1.38-15.33,0.08c-4.51-1.37-8.91-5.15-13.16-8.8c-2.84-2.43-5.77-4.95-8.7-6.73c-3.29-1.99-6.23-2.83-9-2.55
			c-2.77,0.28-5.49,1.67-8.32,4.26c-2.53,2.31-4.91,5.35-7.21,8.28c-3.47,4.42-7.05,8.99-11.22,11.21
			c-3.97,2.13-9.37,2.51-15.07,2.92c-7.58,0.54-15.41,1.1-19.54,6.12c-4.13,5.02-3.15,12.83-2.2,20.38
			c0.71,5.67,1.38,11.02,0.08,15.33c-1.37,4.51-5.15,8.91-8.8,13.16c-2.43,2.84-4.95,5.77-6.73,8.7c-1.99,3.29-2.83,6.23-2.55,9
			c0.28,2.77,1.67,5.49,4.26,8.32c2.31,2.53,5.35,4.91,8.28,7.21c4.42,3.47,8.99,7.05,11.21,11.22c2.13,3.97,2.51,9.37,2.92,15.07
			c0.54,7.58,1.1,15.41,6.12,19.54c5.02,4.13,12.83,3.15,20.38,2.2C-33.98,168.43-30.76,168.02-27.8,168.02z"/>
	</g>
	<g class="st6">
		<path class="st7" d="M8.8,183.05c-5.53,0-10.86-4.42-16.02-8.71c-4.12-3.42-8.38-6.96-12.7-8.2c-4.14-1.17-9.26-0.45-14.68,0.33
			c-7.23,1.03-14.7,2.09-19.59-1.8c-4.88-3.88-5.54-11.39-6.19-18.64c-0.48-5.46-0.94-10.63-3.04-14.4
			c-2.18-3.94-6.6-7.29-10.88-10.53c-5.71-4.33-11.62-8.8-12.31-14.75c-0.7-5.96,4.05-11.67,8.64-17.2c3.42-4.12,6.96-8.38,8.2-12.7
			c1.17-4.14,0.45-9.26-0.33-14.68c-1.03-7.23-2.09-14.7,1.8-19.59c3.88-4.88,11.39-5.54,18.64-6.19c5.46-0.48,10.63-0.94,14.4-3.04
			c3.94-2.18,7.29-6.6,10.53-10.88c4.33-5.71,8.8-11.62,14.75-12.31c5.96-0.7,11.67,4.05,17.2,8.64c4.12,3.42,8.38,6.96,12.7,8.2
			c4.14,1.17,9.26,0.45,14.68-0.33c7.23-1.03,14.7-2.09,19.59,1.8c4.88,3.88,5.54,11.39,6.19,18.64c0.48,5.46,0.94,10.63,3.04,14.4
			c2.18,3.94,6.6,7.29,10.88,10.53c5.71,4.33,11.62,8.8,12.31,14.75c0.7,5.96-4.05,11.67-8.64,17.2c-3.42,4.12-6.96,8.38-8.2,12.7
			c-1.17,4.14-0.45,9.26,0.33,14.68c1.03,7.23,2.09,14.7-1.8,19.59c-3.88,4.88-11.38,5.54-18.64,6.19
			c-5.46,0.48-10.63,0.94-14.4,3.04l0,0c-3.94,2.18-7.29,6.6-10.53,10.88c-4.33,5.71-8.8,11.62-14.75,12.31
			C9.59,183.03,9.2,183.05,8.8,183.05z M-25,165.45c1.82,0,3.53,0.17,5.11,0.62c4.33,1.24,8.6,4.78,12.72,8.21
			c5.51,4.58,11.21,9.31,17.14,8.62c5.91-0.69,10.38-6.58,14.69-12.28c3.25-4.28,6.6-8.72,10.56-10.9l0,0
			c3.78-2.11,8.95-2.57,14.43-3.05c7.24-0.64,14.72-1.31,18.59-6.16c3.87-4.86,2.81-12.32,1.78-19.53
			c-0.77-5.43-1.5-10.55-0.32-14.71c1.24-4.33,4.78-8.6,8.21-12.72c4.58-5.51,9.31-11.21,8.62-17.14
			c-0.69-5.91-6.58-10.38-12.28-14.69c-4.28-3.25-8.72-6.6-10.9-10.56c-2.11-3.78-2.57-8.95-3.05-14.43
			c-0.64-7.24-1.31-14.72-6.16-18.59c-4.86-3.87-12.32-2.81-19.53-1.78c-5.43,0.77-10.55,1.5-14.71,0.32
			c-4.33-1.24-8.6-4.78-12.72-8.21C1.65,13.89-4.05,9.16-9.97,9.85c-5.91,0.69-10.38,6.58-14.69,12.28
			c-3.25,4.28-6.6,8.72-10.56,10.9c-3.78,2.11-8.95,2.57-14.43,3.05c-7.24,0.64-14.72,1.31-18.59,6.16
			c-3.87,4.86-2.81,12.32-1.78,19.53c0.77,5.43,1.5,10.55,0.32,14.71c-1.24,4.33-4.78,8.6-8.21,12.72
			c-4.58,5.51-9.31,11.21-8.62,17.14c0.69,5.91,6.58,10.38,12.28,14.69c4.28,3.25,8.72,6.6,10.9,10.56
			c2.11,3.78,2.57,8.95,3.05,14.43c0.64,7.24,1.31,14.72,6.16,18.59c4.86,3.87,12.32,2.81,19.53,1.78
			C-31.23,165.92-27.97,165.45-25,165.45z"/>
	</g>
	<g class="st8">
		<path class="st9" d="M9.74,179.13c-5.24,0-10.36-4.09-15.32-8.06c-3.99-3.2-8.12-6.5-12.25-7.6c-3.99-1.05-9.11-0.23-14.06,0.57
			c-6.89,1.11-14.02,2.25-18.75-1.38c-4.72-3.62-5.49-10.78-6.23-17.7c-0.54-5-1.09-10.17-3.18-13.74
			c-2.15-3.72-6.43-6.84-10.58-9.86c-5.54-4.04-11.28-8.22-12.05-13.91c-0.78-5.71,3.67-11.26,7.97-16.64
			c3.2-3.99,6.5-8.12,7.6-12.25c1.05-3.99,0.23-9.11-0.57-14.06c-1.11-6.89-2.25-14.02,1.38-18.75c3.62-4.72,10.78-5.49,17.7-6.23
			c5-0.54,10.17-1.09,13.74-3.18c3.72-2.15,6.84-6.43,9.86-10.58c4.04-5.54,8.22-11.28,13.91-12.05c5.71-0.78,11.26,3.67,16.64,7.97
			c3.99,3.2,8.12,6.5,12.25,7.6c3.99,1.05,9.11,0.23,14.06-0.57c6.89-1.11,14.02-2.25,18.75,1.38c4.72,3.62,5.49,10.78,6.23,17.7
			c0.54,5,1.09,10.17,3.18,13.74c2.15,3.72,6.43,6.84,10.58,9.86c5.54,4.04,11.28,8.22,12.05,13.91c0.78,5.71-3.67,11.26-7.97,16.64
			c-3.2,3.99-6.5,8.12-7.6,12.25c-1.05,3.99-0.23,9.11,0.57,14.06c1.11,6.89,2.25,14.02-1.38,18.75c-3.62,4.72-10.78,5.49-17.7,6.23
			c-5,0.54-10.17,1.09-13.74,3.18l0,0c-3.72,2.15-6.84,6.43-9.86,10.58c-4.04,5.54-8.22,11.28-13.91,12.05
			C10.62,179.1,10.18,179.13,9.74,179.13z M-22.22,162.88c1.57,0,3.06,0.14,4.42,0.5c4.15,1.11,8.29,4.42,12.28,7.62
			c5.36,4.29,10.9,8.73,16.57,7.96c5.65-0.77,9.82-6.49,13.85-12.02c3.03-4.15,6.15-8.44,9.89-10.6l0,0
			c3.6-2.09,8.77-2.65,13.78-3.19c6.9-0.74,14.04-1.51,17.63-6.2c3.61-4.7,2.46-11.81,1.36-18.68c-0.8-4.96-1.62-10.08-0.56-14.09
			c1.11-4.15,4.42-8.29,7.62-12.28c4.29-5.36,8.73-10.9,7.96-16.57c-0.77-5.65-6.49-9.82-12.02-13.85
			c-4.15-3.03-8.44-6.15-10.6-9.89c-2.09-3.6-2.65-8.77-3.19-13.78c-0.74-6.9-1.51-14.04-6.2-17.63c-4.7-3.61-11.81-2.46-18.68-1.36
			c-4.96,0.8-10.08,1.62-14.09,0.56c-4.15-1.11-8.29-4.42-12.28-7.62c-5.36-4.29-10.9-8.73-16.57-7.96
			c-5.65,0.77-9.82,6.49-13.85,12.02c-3.03,4.15-6.15,8.44-9.89,10.6c-3.6,2.09-8.77,2.65-13.78,3.19
			c-6.9,0.74-14.04,1.51-17.63,6.2c-3.61,4.7-2.46,11.81-1.36,18.68c0.8,4.96,1.62,10.08,0.56,14.09
			c-1.11,4.15-4.42,8.29-7.62,12.28c-4.29,5.36-8.73,10.9-7.96,16.57c0.77,5.65,6.49,9.82,12.02,13.85
			c4.15,3.03,8.44,6.15,10.6,9.89c2.09,3.6,2.65,8.77,3.19,13.78c0.74,6.9,1.51,14.04,6.2,17.63c4.7,3.61,11.81,2.46,18.68,1.36
			C-28.62,163.42-25.27,162.88-22.22,162.88z"/>
	</g>
	<g class="st10">
		<path class="st11" d="M10.68,175.22c-4.95,0-9.85-3.77-14.59-7.42c-3.87-2.98-7.87-6.05-11.83-7.02
			c-3.85-0.94-8.73-0.05-13.45,0.8c-6.55,1.19-13.32,2.42-17.89-0.95c-4.57-3.36-5.44-10.18-6.29-16.77
			c-0.61-4.76-1.24-9.69-3.3-13.07c-2.12-3.49-6.25-6.38-10.25-9.17c-5.38-3.76-10.95-7.65-11.81-13.1
			c-0.86-5.45,3.29-10.84,7.3-16.06c2.98-3.87,6.05-7.87,7.02-11.83c0.94-3.85,0.05-8.73-0.8-13.45
			c-1.19-6.55-2.42-13.32,0.95-17.89c3.36-4.57,10.18-5.44,16.77-6.29c4.76-0.61,9.69-1.24,13.07-3.3
			c3.49-2.12,6.38-6.25,9.17-10.25c3.76-5.38,7.65-10.95,13.1-11.81c5.45-0.86,10.84,3.29,16.06,7.3c3.87,2.98,7.87,6.05,11.83,7.02
			c3.85,0.94,8.73,0.05,13.45-0.8c6.55-1.19,13.32-2.42,17.89,0.95c4.57,3.36,5.44,10.18,6.29,16.77c0.61,4.76,1.24,9.69,3.3,13.07
			c2.12,3.49,6.25,6.38,10.25,9.17c5.38,3.76,10.95,7.65,11.81,13.1c0.86,5.45-3.29,10.84-7.3,16.06
			c-2.98,3.87-6.05,7.87-7.02,11.83c-0.94,3.85-0.05,8.73,0.8,13.45c1.19,6.55,2.42,13.32-0.95,17.89
			c-3.36,4.57-10.18,5.44-16.77,6.29c-4.76,0.61-9.69,1.24-13.07,3.3c-3.49,2.12-6.38,6.25-9.17,10.25
			c-3.76,5.38-7.65,10.95-13.1,11.81C11.66,175.18,11.17,175.22,10.68,175.22z M-19.5,160.28c1.34,0,2.61,0.12,3.79,0.41
			c3.98,0.97,7.99,4.06,11.87,7.04c5.2,4,10.57,8.13,15.98,7.28c5.4-0.85,9.28-6.4,13.03-11.76c2.8-4.01,5.7-8.15,9.2-10.28
			l0.03,0.04l-0.03-0.04c3.41-2.07,8.34-2.7,13.11-3.31c6.57-0.84,13.36-1.72,16.7-6.25c3.34-4.53,2.12-11.29,0.93-17.81
			c-0.86-4.73-1.75-9.63-0.8-13.5c0.97-3.98,4.06-7.99,7.04-11.87c4-5.2,8.13-10.57,7.28-15.98c-0.85-5.4-6.4-9.28-11.76-13.03
			c-4.01-2.8-8.15-5.7-10.28-9.2c-2.07-3.41-2.7-8.34-3.31-13.11c-0.84-6.57-1.72-13.36-6.25-16.7c-4.54-3.34-11.28-2.12-17.81-0.93
			c-4.73,0.86-9.63,1.75-13.5,0.8c-3.98-0.97-7.99-4.06-11.87-7.04c-5.2-4-10.57-8.13-15.98-7.28c-5.4,0.85-9.28,6.4-13.03,11.76
			c-2.8,4.01-5.7,8.15-9.2,10.28c-3.41,2.07-8.34,2.7-13.11,3.31c-6.57,0.84-13.36,1.72-16.7,6.25c-3.34,4.53-2.12,11.29-0.93,17.81
			c0.86,4.73,1.75,9.63,0.8,13.5c-0.97,3.98-4.06,7.99-7.04,11.87c-4,5.2-8.13,10.57-7.28,15.98c0.85,5.4,6.4,9.28,11.77,13.03
			c4.01,2.8,8.15,5.7,10.28,9.2c2.07,3.41,2.7,8.34,3.31,13.11c0.84,6.57,1.72,13.36,6.25,16.7c4.53,3.34,11.28,2.12,17.81,0.93
			C-25.92,160.89-22.55,160.28-19.5,160.28z"/>
	</g>
	<g class="st12">
		<path class="st13" d="M11.62,171.31c-4.67,0-9.34-3.44-13.88-6.78c-3.74-2.75-7.61-5.6-11.39-6.43c-3.7-0.82-8.34,0.13-12.84,1.05
			c-6.21,1.27-12.63,2.58-17.05-0.53c-4.41-3.1-5.39-9.57-6.33-15.83c-0.69-4.53-1.4-9.22-3.43-12.42c-2.08-3.27-6.08-5.93-9.94-8.5
			c-5.22-3.48-10.62-7.07-11.55-12.27c-0.94-5.2,2.91-10.43,6.64-15.49c2.75-3.74,5.6-7.61,6.43-11.39
			c0.82-3.7-0.13-8.34-1.05-12.84c-1.27-6.21-2.58-12.63,0.53-17.05c3.1-4.41,9.57-5.39,15.83-6.33c4.53-0.69,9.22-1.4,12.42-3.43
			c3.27-2.08,5.93-6.08,8.5-9.94c3.48-5.22,7.07-10.62,12.27-11.55c5.2-0.94,10.43,2.91,15.49,6.64c3.74,2.75,7.61,5.6,11.39,6.43
			c3.7,0.82,8.34-0.13,12.84-1.05c6.21-1.27,12.63-2.58,17.05,0.53c4.41,3.1,5.39,9.57,6.33,15.83c0.69,4.53,1.4,9.22,3.43,12.42
			c2.08,3.27,6.08,5.93,9.94,8.5c5.22,3.48,10.62,7.07,11.55,12.27c0.94,5.2-2.91,10.43-6.64,15.49c-2.75,3.74-5.6,7.61-6.43,11.39
			c-0.82,3.7,0.13,8.34,1.05,12.84c1.27,6.21,2.58,12.63-0.53,17.05c-3.1,4.41-9.57,5.39-15.83,6.33c-4.53,0.69-9.22,1.4-12.42,3.43
			l-0.03-0.05l0.03,0.05c-3.27,2.08-5.93,6.08-8.5,9.94c-3.48,5.22-7.07,10.62-12.27,11.55C12.69,171.27,12.16,171.31,11.62,171.31z
			 M-16.81,157.68c1.11,0,2.18,0.09,3.18,0.31c3.8,0.84,7.68,3.69,11.43,6.45c4.52,3.33,9.19,6.76,13.82,6.76
			c0.53,0,1.06-0.04,1.59-0.14c5.15-0.93,8.73-6.3,12.19-11.5c2.58-3.87,5.25-7.88,8.53-9.97c3.22-2.05,7.92-2.76,12.46-3.45
			c6.23-0.94,12.68-1.92,15.75-6.29c3.08-4.37,1.77-10.77,0.51-16.96c-0.92-4.5-1.87-9.16-1.05-12.88c0.84-3.8,3.69-7.68,6.45-11.43
			c3.71-5.04,7.54-10.26,6.62-15.41c-0.93-5.15-6.3-8.73-11.5-12.19c-3.87-2.58-7.88-5.25-9.97-8.53
			c-2.05-3.22-2.76-7.92-3.45-12.46c-0.94-6.23-1.92-12.68-6.29-15.75c-4.37-3.08-10.77-1.77-16.96-0.51
			c-3.29,0.67-6.67,1.36-9.7,1.36c-1.11,0-2.18-0.09-3.18-0.31c-3.8-0.84-7.68-3.69-11.43-6.45c-5.04-3.71-10.26-7.54-15.41-6.62
			c-5.15,0.93-8.73,6.3-12.19,11.5c-2.58,3.87-5.25,7.88-8.53,9.97c-3.22,2.05-7.92,2.76-12.46,3.45
			c-6.23,0.94-12.68,1.92-15.75,6.29c-3.08,4.37-1.77,10.77-0.51,16.96c0.92,4.5,1.87,9.16,1.05,12.88
			c-0.84,3.8-3.69,7.68-6.45,11.43c-3.71,5.04-7.54,10.26-6.62,15.41c0.93,5.15,6.3,8.73,11.5,12.19c3.87,2.58,7.88,5.25,9.97,8.53
			c2.05,3.22,2.76,7.92,3.45,12.46c0.94,6.23,1.92,12.68,6.29,15.75c4.37,3.08,10.77,1.77,16.96,0.51
			C-23.22,158.37-19.84,157.68-16.81,157.68z"/>
	</g>
	<g class="st14">
		<path class="st15" d="M12.55,167.41c-4.38,0-8.84-3.12-13.17-6.15c-3.61-2.53-7.35-5.14-10.94-5.84
			c-3.55-0.69-7.96,0.31-12.22,1.29c-5.87,1.34-11.95,2.73-16.2-0.11c-4.25-2.84-5.33-8.96-6.38-14.89
			c-0.76-4.31-1.55-8.76-3.57-11.76c-2.05-3.05-5.9-5.48-9.63-7.83c-5.06-3.19-10.28-6.49-11.3-11.43
			c-1.02-4.95,2.54-10.02,5.97-14.93c2.53-3.61,5.14-7.35,5.84-10.94c0.69-3.55-0.31-7.96-1.29-12.22
			c-1.34-5.87-2.73-11.95,0.11-16.2c2.84-4.25,8.96-5.33,14.89-6.38c4.31-0.76,8.76-1.55,11.76-3.57c3.05-2.05,5.48-5.9,7.83-9.63
			c3.19-5.06,6.49-10.28,11.43-11.3c4.95-1.02,10.02,2.54,14.93,5.97c3.61,2.53,7.35,5.14,10.94,5.84
			c3.55,0.69,7.96-0.31,12.22-1.29c5.87-1.34,11.95-2.73,16.2,0.11c4.25,2.84,5.33,8.96,6.38,14.88c0.76,4.31,1.55,8.76,3.57,11.76
			c2.05,3.05,5.9,5.48,9.63,7.83c5.06,3.19,10.28,6.49,11.3,11.43c1.02,4.95-2.54,10.02-5.97,14.93c-2.53,3.61-5.14,7.35-5.84,10.94
			c-0.69,3.55,0.31,7.96,1.29,12.22c1.34,5.87,2.73,11.95-0.11,16.2c-2.84,4.25-8.96,5.33-14.88,6.38
			c-4.31,0.76-8.76,1.55-11.76,3.57c-3.05,2.05-5.48,5.9-7.83,9.63c-3.19,5.06-6.49,10.28-11.43,11.3
			C13.73,167.35,13.14,167.41,12.55,167.41z M-14.15,155.07c0.91,0,1.78,0.07,2.61,0.23c3.62,0.71,7.37,3.33,10.99,5.86
			c4.89,3.42,9.94,6.96,14.84,5.95c4.89-1,8.18-6.21,11.35-11.25c2.36-3.74,4.8-7.6,7.87-9.67l0.03,0.05l-0.03-0.05
			c3.03-2.03,7.49-2.82,11.81-3.59c5.9-1.04,11.99-2.12,14.8-6.33c2.82-4.21,1.43-10.26,0.09-16.11c-0.98-4.27-1.99-8.7-1.29-12.27
			c0.71-3.62,3.33-7.37,5.86-10.99c3.42-4.89,6.96-9.94,5.95-14.84c-1-4.89-6.21-8.18-11.24-11.35c-3.74-2.36-7.6-4.8-9.67-7.87
			c-2.03-3.03-2.82-7.49-3.59-11.81c-1.04-5.9-2.12-11.99-6.33-14.8c-4.21-2.82-10.26-1.43-16.11-0.09
			c-4.27,0.98-8.69,1.99-12.27,1.29c-3.62-0.71-7.37-3.33-10.99-5.86c-4.89-3.42-9.94-6.96-14.84-5.95
			c-4.89,1-8.18,6.21-11.35,11.24c-2.36,3.74-4.8,7.6-7.87,9.67c-3.03,2.03-7.49,2.82-11.81,3.59c-5.9,1.04-11.99,2.12-14.81,6.33
			c-2.82,4.21-1.43,10.26-0.09,16.11c0.98,4.27,1.99,8.7,1.29,12.27c-0.71,3.62-3.33,7.37-5.86,10.99
			c-3.42,4.89-6.96,9.94-5.95,14.84c1,4.89,6.21,8.18,11.25,11.35c3.74,2.36,7.6,4.8,9.67,7.87c2.03,3.03,2.82,7.49,3.59,11.81
			c1.04,5.9,2.12,11.99,6.33,14.8c4.21,2.82,10.26,1.43,16.11,0.09C-20.53,155.84-17.16,155.07-14.15,155.07z"/>
	</g>
	<g class="st16">
		<path class="st17" d="M13.47,163.51c-4.1,0-8.34-2.8-12.45-5.52c-3.48-2.3-7.08-4.68-10.5-5.26c-3.4-0.57-7.57,0.5-11.6,1.53
			c-3.32,0.85-6.72,1.72-9.78,1.72c-2.04,0-3.94-0.39-5.57-1.42c-4.09-2.58-5.28-8.36-6.42-13.94c-0.84-4.08-1.7-8.29-3.7-11.11
			c-2.01-2.83-5.72-5.03-9.31-7.16c-4.89-2.91-9.95-5.91-11.05-10.6c-1.1-4.69,2.15-9.61,5.3-14.37c2.3-3.48,4.68-7.08,5.26-10.5
			c0.57-3.4-0.5-7.57-1.53-11.6c-1.42-5.53-2.89-11.26-0.31-15.36c2.58-4.09,8.36-5.28,13.94-6.42c4.08-0.84,8.29-1.7,11.11-3.7
			c2.83-2.01,5.03-5.72,7.16-9.31c2.91-4.89,5.91-9.95,10.6-11.05c4.69-1.1,9.61,2.15,14.37,5.3c3.48,2.3,7.08,4.68,10.5,5.26
			c3.4,0.57,7.57-0.5,11.6-1.53c5.54-1.42,11.26-2.89,15.36-0.31c4.09,2.58,5.28,8.36,6.42,13.94c0.84,4.08,1.7,8.29,3.7,11.11
			c2.01,2.83,5.72,5.03,9.31,7.16c4.89,2.91,9.95,5.91,11.05,10.6c1.1,4.69-2.15,9.61-5.3,14.37c-2.3,3.48-4.68,7.08-5.26,10.5
			c-0.57,3.4,0.5,7.57,1.53,11.6c1.42,5.53,2.89,11.26,0.31,15.36c-2.58,4.09-8.36,5.28-13.94,6.42c-4.08,0.84-8.29,1.7-11.11,3.7
			c-2.83,2.01-5.03,5.72-7.16,9.31c-2.91,4.89-5.91,9.95-10.6,11.05C14.76,163.44,14.12,163.51,13.47,163.51z M-11.53,152.45
			c0.71,0,1.41,0.05,2.07,0.16c3.44,0.58,7.06,2.97,10.55,5.28c4.73,3.13,9.63,6.36,14.27,5.28c4.63-1.08,7.62-6.12,10.51-10.99
			c2.14-3.6,4.35-7.33,7.2-9.35l0.04,0.05l-0.04-0.05c2.83-2.02,7.07-2.89,11.16-3.72c5.56-1.14,11.31-2.32,13.86-6.36
			c2.55-4.05,1.09-9.74-0.32-15.25c-1.04-4.05-2.11-8.23-1.54-11.66c0.58-3.44,2.97-7.06,5.28-10.55c3.13-4.73,6.36-9.63,5.28-14.27
			c-1.08-4.63-6.12-7.62-10.99-10.51c-3.6-2.14-7.33-4.35-9.35-7.2c-2.02-2.83-2.89-7.07-3.72-11.16
			c-1.14-5.56-2.32-11.31-6.36-13.86c-4.05-2.55-9.74-1.09-15.25,0.32c-4.05,1.04-8.23,2.11-11.66,1.54
			C6.01,39.56,2.4,37.18-1.1,34.87c-4.73-3.13-9.63-6.36-14.27-5.28c-4.63,1.08-7.62,6.12-10.51,10.99c-2.14,3.6-4.35,7.33-7.2,9.35
			c-2.83,2.02-7.07,2.89-11.16,3.72c-5.56,1.14-11.31,2.32-13.86,6.36c-2.55,4.05-1.09,9.74,0.32,15.25
			c1.04,4.05,2.11,8.23,1.54,11.66c-0.58,3.44-2.97,7.06-5.28,10.55c-3.13,4.73-6.36,9.63-5.28,14.27
			c1.08,4.63,6.12,7.62,10.99,10.51c3.6,2.14,7.33,4.35,9.35,7.2c2.02,2.83,2.89,7.07,3.72,11.16c1.14,5.56,2.32,11.31,6.36,13.86
			c4.05,2.55,9.74,1.09,15.25-0.32C-17.85,153.31-14.5,152.45-11.53,152.45z"/>
	</g>
	<g class="st18">
		<path class="st19" d="M14.39,159.62c-3.83,0-7.83-2.48-11.72-4.89c-3.35-2.08-6.82-4.23-10.06-4.67
			c-3.25-0.45-7.18,0.69-10.98,1.78c-5.2,1.5-10.57,3.05-14.51,0.72c-3.94-2.32-5.22-7.75-6.46-13c-0.91-3.85-1.85-7.83-3.84-10.45
			c-1.98-2.61-5.55-4.58-9-6.49c-4.73-2.62-9.62-5.33-10.8-9.76c-1.18-4.44,1.77-9.2,4.63-13.81c2.08-3.35,4.23-6.82,4.67-10.06
			c0.45-3.25-0.69-7.18-1.78-10.98c-1.5-5.2-3.05-10.57-0.72-14.51c2.32-3.94,7.75-5.22,13-6.46c3.85-0.91,7.83-1.85,10.45-3.84
			c2.61-1.98,4.58-5.55,6.49-9c2.62-4.73,5.33-9.62,9.76-10.8c4.44-1.18,9.2,1.77,13.81,4.63c3.35,2.08,6.82,4.23,10.06,4.67
			c3.25,0.45,7.18-0.69,10.98-1.78c5.2-1.5,10.57-3.05,14.51-0.72c3.94,2.32,5.22,7.75,6.46,13c0.91,3.85,1.85,7.83,3.84,10.45
			c1.98,2.61,5.55,4.58,9,6.49c4.73,2.62,9.62,5.33,10.8,9.76c1.18,4.44-1.77,9.2-4.63,13.81c-2.08,3.35-4.23,6.82-4.67,10.06
			c-0.45,3.25,0.69,7.18,1.78,10.98c1.5,5.2,3.05,10.57,0.72,14.51c-2.32,3.94-7.75,5.22-13,6.46c-3.85,0.91-7.83,1.85-10.45,3.84
			l-0.04-0.06l0.04,0.06c-2.61,1.98-4.58,5.55-6.49,9c-2.62,4.73-5.33,9.62-9.76,10.8C15.79,159.54,15.09,159.62,14.39,159.62z
			 M-8.93,149.82c0.54,0,1.06,0.03,1.56,0.1c3.27,0.45,6.75,2.61,10.11,4.69c4.58,2.84,9.32,5.77,13.7,4.61
			c4.38-1.16,7.07-6.03,9.67-10.73c1.92-3.47,3.9-7.05,6.53-9.04c2.64-2,6.64-2.95,10.5-3.86c5.22-1.24,10.62-2.51,12.91-6.4
			c2.29-3.89,0.75-9.23-0.74-14.4c-1.1-3.82-2.24-7.76-1.79-11.04c0.45-3.27,2.61-6.75,4.69-10.11c2.84-4.58,5.77-9.32,4.61-13.7
			c-1.16-4.38-6.03-7.07-10.73-9.67c-3.47-1.92-7.05-3.9-9.04-6.53c-2-2.64-2.95-6.64-3.86-10.5c-1.24-5.22-2.51-10.62-6.4-12.91
			c-3.89-2.29-9.23-0.75-14.4,0.74c-3.82,1.1-7.76,2.24-11.04,1.79c-3.27-0.45-6.75-2.61-10.11-4.69c-4.58-2.84-9.32-5.77-13.7-4.61
			c-4.38,1.16-7.07,6.03-9.67,10.73c-1.92,3.47-3.9,7.05-6.53,9.04c-2.64,2-6.64,2.95-10.5,3.86c-5.22,1.24-10.62,2.51-12.91,6.4
			c-2.29,3.89-0.75,9.23,0.74,14.4c1.1,3.82,2.24,7.76,1.79,11.04c-0.45,3.27-2.61,6.75-4.69,10.11c-2.84,4.58-5.77,9.32-4.61,13.7
			c1.16,4.38,6.03,7.07,10.73,9.67c3.47,1.92,7.05,3.9,9.04,6.53c2,2.64,2.95,6.64,3.86,10.5c1.24,5.22,2.51,10.62,6.4,12.91
			c3.89,2.29,9.23,0.75,14.4-0.74C-15.19,150.77-11.87,149.82-8.93,149.82z"/>
	</g>
	<g class="st20">
		<path class="st21" d="M15.3,155.74c-3.55,0-7.32-2.17-10.99-4.28c-3.22-1.86-6.56-3.77-9.61-4.09c-3.1-0.32-6.8,0.87-10.37,2.03
			c-3.22,1.04-6.51,2.11-9.47,2.11c-1.5,0-2.92-0.28-4.2-0.97c-3.78-2.06-5.16-7.15-6.5-12.06c-0.99-3.62-2.01-7.37-3.98-9.79
			c-1.94-2.39-5.37-4.14-8.68-5.83c-4.57-2.33-9.29-4.74-10.55-8.92c-1.26-4.19,1.39-8.79,3.95-13.25c1.86-3.22,3.77-6.56,4.09-9.61
			c0.32-3.1-0.87-6.8-2.03-10.37c-1.57-4.86-3.2-9.88-1.14-13.66c2.06-3.78,7.15-5.16,12.06-6.5c3.62-0.99,7.37-2.01,9.79-3.98
			c2.39-1.94,4.14-5.37,5.83-8.68c2.33-4.57,4.74-9.29,8.92-10.55c4.19-1.26,8.79,1.39,13.25,3.95c3.22,1.86,6.56,3.77,9.61,4.09
			c3.1,0.32,6.8-0.87,10.37-2.03c4.86-1.57,9.88-3.2,13.66-1.14c3.78,2.06,5.16,7.15,6.5,12.06c0.99,3.62,2.01,7.37,3.98,9.79
			c1.94,2.39,5.37,4.14,8.68,5.83c4.57,2.33,9.29,4.74,10.55,8.92c1.26,4.19-1.39,8.79-3.95,13.25c-1.86,3.22-3.77,6.56-4.09,9.61
			c-0.32,3.1,0.87,6.8,2.03,10.37c1.57,4.86,3.2,9.88,1.14,13.66c-2.06,3.78-7.15,5.16-12.06,6.5c-3.62,0.99-7.37,2.01-9.79,3.98
			c-2.39,1.94-4.14,5.37-5.83,8.68c-2.33,4.57-4.74,9.29-8.92,10.55C16.82,155.64,16.06,155.74,15.3,155.74z M-6.37,147.17
			c0.37,0,0.73,0.02,1.09,0.05c3.09,0.32,6.44,2.25,9.68,4.11c4.43,2.55,9,5.18,13.13,3.94c4.12-1.24,6.52-5.93,8.83-10.47
			c1.7-3.33,3.45-6.77,5.87-8.73l0.05,0.06l-0.05-0.06c2.45-1.99,6.21-3.01,9.85-4.01c4.89-1.33,9.94-2.71,11.97-6.43
			c2.03-3.72,0.41-8.72-1.15-13.54c-1.16-3.59-2.36-7.29-2.04-10.43c0.32-3.09,2.25-6.44,4.11-9.68c2.55-4.43,5.18-9,3.94-13.13
			c-1.24-4.12-5.93-6.52-10.47-8.83c-3.33-1.7-6.77-3.45-8.73-5.87c-1.99-2.45-3.01-6.21-4.01-9.85c-1.33-4.89-2.71-9.94-6.43-11.97
			c-3.72-2.03-8.72-0.41-13.54,1.15c-3.59,1.16-7.29,2.36-10.43,2.04c-3.09-0.32-6.44-2.25-9.68-4.11c-4.43-2.55-9-5.18-13.13-3.94
			c-4.12,1.24-6.52,5.93-8.83,10.47c-1.7,3.33-3.45,6.77-5.87,8.73c-2.45,1.99-6.21,3.01-9.85,4.01c-4.89,1.33-9.94,2.71-11.97,6.43
			c-2.03,3.72-0.41,8.72,1.15,13.54c1.16,3.59,2.36,7.29,2.04,10.43c-0.32,3.09-2.25,6.44-4.11,9.68c-2.55,4.43-5.18,9-3.94,13.13
			c1.24,4.12,5.93,6.52,10.47,8.83c3.33,1.7,6.77,3.45,8.73,5.87c1.99,2.45,3.01,6.21,4.01,9.85c1.33,4.89,2.71,9.94,6.43,11.97
			c3.72,2.03,8.72,0.41,13.54-1.15C-12.54,148.23-9.26,147.17-6.37,147.17z"/>
	</g>
	<g class="st22">
		<path class="st23" d="M16.19,151.88c-3.28,0-6.8-1.86-10.23-3.67c-3.1-1.63-6.3-3.32-9.17-3.51c-2.96-0.2-6.41,1.06-9.75,2.28
			c-4.52,1.65-9.19,3.35-12.82,1.55c-3.62-1.8-5.11-6.54-6.54-11.13c-1.06-3.39-2.16-6.9-4.12-9.13c-1.9-2.17-5.18-3.69-8.36-5.16
			c-4.41-2.04-8.96-4.15-10.31-8.08c-1.34-3.94,1-8.39,3.27-12.69c1.63-3.1,3.32-6.3,3.51-9.17c0.2-2.96-1.06-6.41-2.28-9.75
			c-1.65-4.52-3.35-9.19-1.55-12.82c1.8-3.62,6.54-5.11,11.13-6.54c3.39-1.06,6.9-2.16,9.13-4.12c2.17-1.9,3.69-5.18,5.16-8.36
			c2.04-4.41,4.15-8.96,8.08-10.31c3.94-1.34,8.39,1,12.69,3.27c3.1,1.63,6.3,3.32,9.17,3.51c2.96,0.2,6.41-1.06,9.75-2.28
			c4.52-1.65,9.19-3.35,12.82-1.55c3.62,1.8,5.11,6.54,6.54,11.13c1.06,3.39,2.16,6.9,4.12,9.13c1.9,2.17,5.18,3.69,8.36,5.16
			c4.41,2.04,8.96,4.15,10.31,8.08c1.34,3.94-1,8.39-3.27,12.69c-1.63,3.1-3.32,6.3-3.51,9.17c-0.2,2.96,1.06,6.41,2.28,9.75
			c1.65,4.52,3.35,9.19,1.55,12.82c-1.8,3.62-6.54,5.11-11.13,6.54c-3.39,1.06-6.9,2.16-9.13,4.12l-0.05-0.06l0.05,0.06
			c-2.17,1.9-3.69,5.18-5.16,8.36c-2.04,4.41-4.15,8.96-8.08,10.31C17.85,151.75,17.03,151.88,16.19,151.88z M-3.84,144.51
			c0.22,0,0.43,0.01,0.64,0.02c2.91,0.19,6.13,1.89,9.24,3.53c4.27,2.25,8.69,4.58,12.56,3.26c3.87-1.32,5.96-5.84,7.99-10.22
			c1.48-3.19,3.01-6.49,5.2-8.41c2.26-1.98,5.78-3.08,9.19-4.15c4.55-1.43,9.26-2.9,11.03-6.46c1.77-3.56,0.08-8.2-1.56-12.69
			c-1.22-3.36-2.49-6.83-2.29-9.82c0.19-2.91,1.89-6.13,3.53-9.24c2.25-4.27,4.58-8.69,3.26-12.56c-1.32-3.87-5.84-5.96-10.22-7.99
			c-3.19-1.48-6.49-3.01-8.41-5.2c-1.98-2.26-3.08-5.78-4.15-9.19c-1.43-4.55-2.9-9.26-6.46-11.03c-3.56-1.77-8.2-0.08-12.69,1.56
			c-3.36,1.22-6.83,2.49-9.82,2.29c-2.91-0.19-6.13-1.89-9.24-3.53c-4.27-2.25-8.69-4.58-12.56-3.26
			c-3.87,1.32-5.96,5.84-7.99,10.22c-1.48,3.19-3.01,6.49-5.2,8.41c-2.26,1.98-5.78,3.08-9.19,4.15c-4.55,1.43-9.26,2.9-11.03,6.46
			c-1.77,3.56-0.08,8.2,1.56,12.69c1.22,3.36,2.49,6.83,2.29,9.82c-0.19,2.91-1.89,6.13-3.53,9.24c-2.25,4.27-4.58,8.69-3.26,12.56
			c1.32,3.87,5.84,5.96,10.22,7.99c3.19,1.48,6.49,3.01,8.41,5.2c1.98,2.26,3.08,5.78,4.15,9.19c1.43,4.55,2.9,9.26,6.46,11.03
			c3.56,1.77,8.2,0.08,12.69-1.56C-9.9,145.68-6.68,144.51-3.84,144.51z"/>
	</g>
	<g class="st24">
		<path class="st25" d="M17.06,148.02c-3.01,0-6.28-1.55-9.47-3.07c-3.1-1.47-6.03-2.87-8.72-2.94c-2.8-0.07-6.02,1.26-9.12,2.53
			c-4.19,1.72-8.51,3.5-11.98,1.96c-3.46-1.54-5.04-5.93-6.57-10.18c-1.14-3.17-2.32-6.44-4.26-8.48c-1.86-1.96-4.86-3.2-8.04-4.51
			c-4.24-1.75-8.63-3.56-10.06-7.24c-1.43-3.68,0.62-7.98,2.59-12.14c1.47-3.1,2.87-6.03,2.94-8.72c0.07-2.81-1.26-6.02-2.53-9.12
			c-1.72-4.19-3.51-8.51-1.96-11.98c1.54-3.46,5.93-5.04,10.18-6.57c3.17-1.14,6.44-2.32,8.48-4.26c1.96-1.86,3.2-4.86,4.51-8.04
			c1.75-4.24,3.56-8.63,7.24-10.06c3.68-1.43,7.98,0.62,12.14,2.59c3.1,1.47,6.03,2.87,8.72,2.94c2.81,0.07,6.02-1.26,9.12-2.53
			c4.19-1.72,8.51-3.51,11.98-1.96c3.46,1.54,5.04,5.93,6.57,10.18c1.14,3.17,2.32,6.44,4.26,8.48c1.86,1.96,4.86,3.2,8.04,4.51
			c4.24,1.75,8.63,3.56,10.06,7.24c1.43,3.68-0.62,7.98-2.59,12.14c-1.47,3.1-2.87,6.03-2.94,8.72c-0.07,2.81,1.26,6.02,2.53,9.12
			c1.72,4.19,3.51,8.51,1.96,11.98c-1.54,3.46-5.93,5.04-10.18,6.57c-3.17,1.14-6.44,2.32-8.48,4.26l0,0
			c-1.96,1.86-3.2,4.86-4.51,8.04c-1.75,4.24-3.56,8.63-7.24,10.06C18.87,147.88,17.98,148.02,17.06,148.02z M-1.33,141.84
			c0.07,0,0.14,0,0.21,0c2.73,0.07,5.81,1.54,8.79,2.95c4.12,1.96,8.38,3.99,12,2.59c3.61-1.4,5.4-5.75,7.14-9.96
			c1.26-3.06,2.56-6.22,4.55-8.1h0c2.06-1.97,5.35-3.16,8.54-4.3c4.21-1.52,8.57-3.09,10.08-6.48c1.51-3.4-0.25-7.69-1.96-11.84
			c-1.29-3.12-2.61-6.35-2.55-9.19c0.07-2.73,1.54-5.81,2.95-8.79c1.96-4.12,3.99-8.38,2.59-12c-1.4-3.61-5.75-5.4-9.96-7.14
			c-3.06-1.26-6.22-2.56-8.1-4.55c-1.97-2.06-3.16-5.35-4.3-8.54c-1.52-4.21-3.09-8.57-6.48-10.08c-3.4-1.51-7.69,0.25-11.84,1.96
			c-3.12,1.29-6.35,2.61-9.19,2.55c-2.73-0.07-5.81-1.54-8.79-2.95c-4.12-1.96-8.38-3.99-12-2.59c-3.61,1.4-5.4,5.75-7.14,9.96
			c-1.26,3.06-2.56,6.22-4.55,8.1c-2.06,1.97-5.35,3.16-8.54,4.3c-4.21,1.52-8.57,3.09-10.08,6.48c-1.51,3.4,0.25,7.69,1.96,11.84
			c1.29,3.12,2.61,6.35,2.55,9.19c-0.07,2.73-1.54,5.81-2.95,8.79c-1.96,4.12-3.99,8.38-2.59,12c1.4,3.61,5.75,5.4,9.96,7.14
			c3.06,1.26,6.22,2.56,8.1,4.55c1.97,2.06,3.16,5.35,4.3,8.54c1.52,4.21,3.09,8.57,6.48,10.08c3.4,1.51,7.69-0.25,11.84-1.96
			C-7.27,143.13-4.12,141.84-1.33,141.84z"/>
	</g>
	<g id="XMLID_5_" class="st26">
		<path class="st27" d="M-16.28,144.92c-0.83,0-1.63-0.13-2.4-0.43c-3.31-1.28-4.99-5.34-6.62-9.26c-1.22-2.93-2.48-5.97-4.4-7.8
			c-1.82-1.74-4.68-2.76-7.71-3.84c-4.09-1.46-8.31-2.97-9.82-6.4c-1.51-3.43,0.23-7.56,1.91-11.57c1.25-2.97,2.42-5.77,2.37-8.29
			c-0.06-2.66-1.45-5.64-2.79-8.51c-1.8-3.85-3.65-7.82-2.37-11.13c1.28-3.31,5.34-4.99,9.26-6.62c2.93-1.22,5.97-2.48,7.8-4.4
			c1.74-1.82,2.76-4.68,3.84-7.71c1.46-4.09,2.97-8.31,6.4-9.82l0.04,0.09l-0.04-0.09c3.43-1.51,7.56,0.23,11.57,1.91
			c2.97,1.25,5.77,2.42,8.29,2.37c2.66-0.06,5.64-1.45,8.51-2.79c3.85-1.8,7.82-3.65,11.13-2.37c3.31,1.28,4.99,5.34,6.62,9.26
			c1.22,2.93,2.48,5.97,4.4,7.8c1.82,1.74,4.68,2.76,7.71,3.84c4.09,1.46,8.31,2.97,9.82,6.4c1.51,3.43-0.23,7.56-1.91,11.57
			c-1.25,2.97-2.42,5.77-2.37,8.29c0.06,2.66,1.45,5.64,2.79,8.51c1.8,3.85,3.65,7.82,2.37,11.13c-1.28,3.31-5.34,4.99-9.26,6.62
			c-2.93,1.22-5.97,2.48-7.8,4.4c-1.74,1.82-2.76,4.68-3.84,7.71c-1.46,4.09-2.97,8.31-6.4,9.82c-3.43,1.51-7.56-0.23-11.57-1.91
			c-2.97-1.25-5.77-2.42-8.29-2.37c-2.66,0.06-5.64,1.45-8.51,2.79C-10.5,143.5-13.53,144.92-16.28,144.92z M-17.91,48.76
			c-0.99,0-1.94,0.17-2.83,0.56c-3.35,1.48-4.85,5.67-6.3,9.71c-1.09,3.05-2.12,5.93-3.88,7.78c-1.87,1.95-4.92,3.22-7.87,4.45
			c-3.88,1.61-7.9,3.28-9.15,6.51c-1.25,3.23,0.58,7.17,2.36,10.98c1.35,2.9,2.75,5.89,2.81,8.59c0.06,2.55-1.13,5.38-2.38,8.36
			c-1.66,3.96-3.38,8.06-1.91,11.42c1.48,3.35,5.67,4.85,9.71,6.3c3.05,1.09,5.93,2.12,7.78,3.88c1.95,1.87,3.22,4.92,4.45,7.87
			c1.61,3.88,3.28,7.9,6.51,9.15c3.23,1.25,7.17-0.58,10.98-2.36c2.9-1.35,5.89-2.75,8.59-2.81c2.55-0.06,5.38,1.13,8.36,2.38
			c3.96,1.66,8.06,3.39,11.42,1.91c3.35-1.48,4.85-5.67,6.3-9.71c1.09-3.05,2.12-5.93,3.88-7.78c1.87-1.95,4.92-3.22,7.87-4.45
			c3.88-1.61,7.9-3.28,9.15-6.51c1.25-3.23-0.58-7.17-2.36-10.98c-1.35-2.9-2.75-5.89-2.81-8.59c-0.06-2.55,1.13-5.37,2.38-8.36
			c1.66-3.96,3.38-8.06,1.91-11.42c-1.48-3.35-5.67-4.85-9.71-6.3c-3.05-1.09-5.93-2.12-7.78-3.88c-1.95-1.87-3.22-4.92-4.45-7.87
			c-1.61-3.88-3.28-7.9-6.51-9.15c-3.23-1.25-7.17,0.58-10.98,2.36c-2.9,1.35-5.89,2.75-8.59,2.81c-2.55,0.05-5.37-1.13-8.36-2.38
			C-12.23,50.01-15.21,48.76-17.91,48.76z"/>
	</g>
	<g class="st26">
		<path class="st25" d="M-15.14,141.66c-0.79,0-1.56-0.12-2.29-0.41c-3.11-1.21-4.71-4.99-6.25-8.65c-1.14-2.7-2.32-5.5-4.1-7.2
			c-1.68-1.6-4.32-2.56-7.11-3.58c-3.81-1.39-7.75-2.82-9.17-6.05c-1.42-3.22,0.18-7.1,1.73-10.85c1.13-2.75,2.21-5.35,2.16-7.67
			c-0.05-2.46-1.32-5.21-2.54-7.88c-1.66-3.61-3.37-7.33-2.16-10.45c1.21-3.11,4.99-4.71,8.65-6.25c2.7-1.14,5.5-2.32,7.2-4.1
			l0.07,0.07l-0.07-0.07c1.6-1.68,2.56-4.32,3.58-7.11c1.39-3.81,2.82-7.75,6.05-9.17c3.22-1.42,7.1,0.18,10.85,1.73
			c2.75,1.13,5.35,2.21,7.67,2.16c2.46-0.05,5.21-1.32,7.88-2.54c3.61-1.66,7.33-3.37,10.45-2.16c3.11,1.21,4.71,4.99,6.25,8.65
			c1.14,2.7,2.32,5.5,4.1,7.2c1.68,1.6,4.32,2.56,7.11,3.58c3.81,1.39,7.75,2.82,9.17,6.05c1.42,3.22-0.18,7.1-1.73,10.85
			c-1.13,2.75-2.21,5.35-2.16,7.67c0.05,2.46,1.32,5.21,2.54,7.88c1.66,3.61,3.37,7.33,2.16,10.45c-1.21,3.11-4.99,4.71-8.65,6.25
			c-2.7,1.14-5.5,2.32-7.2,4.1c-1.6,1.68-2.56,4.32-3.58,7.11c-1.39,3.81-2.82,7.75-6.05,9.17c-3.22,1.42-7.1-0.18-10.85-1.73
			c-2.75-1.13-5.34-2.2-7.67-2.16c-2.46,0.05-5.21,1.32-7.88,2.54C-9.74,140.37-12.57,141.66-15.14,141.66z M-16.64,51.96
			c-0.94,0-1.84,0.16-2.69,0.53c-3.15,1.39-4.57,5.29-5.94,9.06c-1.02,2.81-1.99,5.47-3.62,7.18c-1.72,1.8-4.54,2.99-7.26,4.14
			c-3.62,1.53-7.36,3.11-8.54,6.14c-1.18,3.04,0.52,6.73,2.15,10.3c1.23,2.68,2.51,5.46,2.56,7.95c0.05,2.36-1.03,4.98-2.17,7.75
			c-1.53,3.71-3.12,7.55-1.73,10.7c1.39,3.15,5.29,4.57,9.06,5.94c2.81,1.02,5.47,1.99,7.18,3.62c1.8,1.72,2.99,4.54,4.14,7.26
			c1.53,3.62,3.11,7.36,6.14,8.54c0.71,0.27,1.45,0.39,2.22,0.39c2.53,0,5.34-1.29,8.08-2.55c2.68-1.23,5.46-2.51,7.95-2.56
			c2.36-0.05,4.98,1.03,7.75,2.17c3.71,1.53,7.55,3.12,10.7,1.73c3.15-1.39,4.57-5.29,5.94-9.06c1.02-2.81,1.99-5.47,3.62-7.18
			c1.72-1.8,4.54-2.99,7.26-4.14c3.62-1.53,7.36-3.11,8.54-6.14c1.18-3.04-0.52-6.73-2.15-10.3c-1.23-2.68-2.51-5.46-2.56-7.95
			c-0.05-2.36,1.03-4.98,2.17-7.75c1.53-3.71,3.12-7.55,1.73-10.7c-1.39-3.15-5.29-4.57-9.06-5.94c-2.81-1.02-5.47-1.99-7.18-3.62
			c-1.8-1.72-2.99-4.54-4.14-7.26c-1.53-3.62-3.11-7.36-6.14-8.54c-3.04-1.18-6.73,0.52-10.3,2.15c-2.68,1.23-5.46,2.51-7.95,2.56
			c-2.36,0.05-4.98-1.03-7.75-2.17C-11.34,53.1-14.12,51.96-16.64,51.96z"/>
	</g>
	<g class="st26">
		<path class="st23" d="M-14.01,138.41c-0.75,0-1.48-0.12-2.18-0.39c-2.92-1.13-4.43-4.64-5.89-8.04c-1.06-2.47-2.17-5.03-3.79-6.59
			c-1.54-1.47-3.95-2.37-6.51-3.32c-3.53-1.32-7.19-2.68-8.52-5.7c-1.33-3.02,0.13-6.64,1.55-10.13c1.02-2.53,1.99-4.92,1.95-7.05
			c-0.05-2.25-1.19-4.79-2.3-7.24c-1.52-3.37-3.08-6.85-1.95-9.76c1.13-2.92,4.64-4.43,8.04-5.89c2.47-1.06,5.03-2.17,6.59-3.79
			c1.47-1.54,2.37-3.95,3.32-6.51c1.32-3.53,2.68-7.19,5.7-8.52c3.02-1.33,6.64,0.13,10.13,1.55c2.53,1.02,4.92,1.99,7.05,1.95
			c2.25-0.05,4.79-1.19,7.24-2.3c3.37-1.52,6.85-3.08,9.76-1.95c2.92,1.13,4.43,4.64,5.89,8.04c1.06,2.47,2.17,5.03,3.79,6.59
			c1.54,1.47,3.95,2.37,6.51,3.32c3.53,1.32,7.19,2.68,8.52,5.7c1.33,3.02-0.13,6.64-1.55,10.13c-1.02,2.53-1.99,4.92-1.95,7.05
			c0.05,2.25,1.19,4.79,2.3,7.24c1.52,3.37,3.08,6.85,1.95,9.76c-1.13,2.92-4.64,4.43-8.04,5.89c-2.47,1.06-5.03,2.17-6.59,3.79
			c-1.47,1.54-2.37,3.95-3.32,6.51c-1.32,3.53-2.68,7.19-5.7,8.52c-3.02,1.33-6.64-0.13-10.13-1.55c-2.53-1.02-4.92-1.99-7.05-1.95
			c-2.25,0.05-4.79,1.19-7.24,2.3C-8.98,137.23-11.61,138.41-14.01,138.41z M-26.95,70.58l0.07,0.07c-1.58,1.66-4.16,2.77-6.65,3.84
			c-3.36,1.44-6.83,2.94-7.93,5.78c-1.1,2.84,0.45,6.28,1.95,9.61c1.11,2.47,2.26,5.03,2.31,7.32c0.05,2.17-0.93,4.58-1.96,7.13
			c-1.4,3.46-2.85,7.03-1.55,9.98c1.3,2.94,4.91,4.29,8.41,5.59c2.58,0.96,5.01,1.87,6.58,3.36c1.66,1.58,2.77,4.16,3.84,6.65
			c1.44,3.36,2.94,6.83,5.78,7.93c2.84,1.1,6.28-0.45,9.61-1.95c2.47-1.11,5.03-2.26,7.32-2.31c2.17-0.05,4.58,0.93,7.13,1.96
			c3.46,1.4,7.03,2.85,9.98,1.55c2.94-1.3,4.29-4.91,5.59-8.41c0.96-2.58,1.87-5.01,3.36-6.58c1.58-1.66,4.16-2.77,6.65-3.84
			c3.36-1.44,6.83-2.94,7.93-5.78c1.1-2.84-0.45-6.28-1.95-9.61c-1.11-2.47-2.26-5.03-2.31-7.32c-0.05-2.17,0.93-4.58,1.96-7.13
			c1.4-3.46,2.85-7.03,1.55-9.98c-1.3-2.94-4.91-4.29-8.41-5.59C29.73,71.9,27.3,71,25.73,69.5c-1.66-1.58-2.77-4.16-3.84-6.65
			c-1.44-3.36-2.94-6.83-5.78-7.93c-2.84-1.1-6.28,0.45-9.61,1.95c-2.47,1.11-5.03,2.26-7.32,2.31c-2.17,0.05-4.58-0.93-7.13-1.96
			c-3.46-1.4-7.03-2.85-9.98-1.55c-2.94,1.3-4.29,4.91-5.59,8.41c-0.96,2.58-1.87,5.01-3.36,6.58L-26.95,70.58z"/>
	</g>
	<g class="st26">
		<path class="st21" d="M-12.87,135.16c-0.72,0-1.41-0.11-2.07-0.37c-2.72-1.06-4.15-4.3-5.53-7.43c-0.99-2.24-2.01-4.56-3.49-5.98
			c-1.4-1.34-3.59-2.17-5.91-3.06c-3.26-1.25-6.63-2.53-7.87-5.35c-1.24-2.82,0.09-6.17,1.37-9.42c0.91-2.31,1.78-4.5,1.74-6.43
			c-0.04-2.05-1.06-4.36-2.05-6.6c-1.38-3.13-2.8-6.36-1.74-9.08c1.06-2.72,4.3-4.15,7.43-5.53c2.24-0.99,4.56-2.01,5.98-3.49
			c1.34-1.4,2.17-3.59,3.06-5.91c1.25-3.26,2.53-6.63,5.35-7.87c2.82-1.24,6.17,0.09,9.42,1.37c2.31,0.91,4.49,1.78,6.43,1.74
			c2.05-0.04,4.36-1.06,6.6-2.05c3.13-1.38,6.36-2.8,9.08-1.74c2.72,1.06,4.15,4.3,5.53,7.43c0.99,2.24,2.01,4.56,3.49,5.98
			c1.4,1.34,3.59,2.17,5.91,3.06c3.26,1.25,6.63,2.53,7.87,5.35c1.24,2.82-0.09,6.17-1.37,9.42c-0.91,2.31-1.78,4.5-1.74,6.43
			c0.04,2.05,1.06,4.36,2.05,6.6c1.38,3.13,2.8,6.36,1.74,9.08c-1.06,2.72-4.3,4.15-7.43,5.53c-2.24,0.99-4.56,2.01-5.98,3.49
			c-1.34,1.4-2.17,3.59-3.06,5.91c-1.25,3.26-2.53,6.63-5.35,7.87c-2.82,1.24-6.17-0.09-9.42-1.37c-2.31-0.91-4.5-1.78-6.43-1.74
			c-2.05,0.04-4.36,1.06-6.6,2.05C-8.22,134.09-10.65,135.16-12.87,135.16z M-24.93,72.49l0.08,0.07c-1.44,1.51-3.78,2.54-6.04,3.53
			c-3.09,1.36-6.29,2.77-7.32,5.41c-1.03,2.64,0.38,5.84,1.74,8.92c0.99,2.26,2.02,4.6,2.07,6.68c0.04,1.98-0.83,4.18-1.75,6.51
			c-1.27,3.21-2.58,6.52-1.37,9.26c1.2,2.74,4.53,4.01,7.75,5.24c2.34,0.89,4.55,1.74,5.97,3.1c1.51,1.44,2.54,3.78,3.53,6.04
			c1.36,3.09,2.77,6.29,5.41,7.32c2.64,1.03,5.84-0.38,8.92-1.74c2.26-0.99,4.6-2.02,6.68-2.07c1.98-0.04,4.18,0.83,6.51,1.75
			c3.21,1.27,6.52,2.58,9.26,1.37c2.74-1.2,4.01-4.53,5.24-7.75c0.89-2.34,1.74-4.55,3.1-5.97c1.44-1.51,3.78-2.54,6.04-3.53
			c3.09-1.36,6.29-2.77,7.32-5.41c1.03-2.64-0.38-5.84-1.74-8.92c-0.99-2.26-2.02-4.6-2.07-6.68c-0.04-1.98,0.83-4.18,1.75-6.51
			c1.27-3.21,2.58-6.52,1.37-9.26c-1.2-2.74-4.53-4.01-7.75-5.24c-2.34-0.89-4.55-1.74-5.97-3.1c-1.51-1.44-2.54-3.78-3.53-6.04
			c-1.36-3.09-2.77-6.29-5.41-7.32c-2.64-1.03-5.84,0.38-8.92,1.74c-2.26,0.99-4.6,2.02-6.68,2.07c-1.98,0.04-4.18-0.83-6.51-1.75
			c-3.21-1.27-6.52-2.58-9.26-1.37c-2.74,1.2-4.01,4.53-5.24,7.75c-0.89,2.34-1.74,4.55-3.1,5.97L-24.93,72.49z"/>
	</g>
	<g class="st26">
		<path class="st19" d="M-11.73,131.91c-0.68,0-1.34-0.11-1.97-0.35c-2.53-0.99-3.87-3.95-5.16-6.82c-0.91-2.01-1.85-4.1-3.18-5.37
			c-1.26-1.2-3.22-1.98-5.3-2.8c-2.98-1.18-5.32-2.76-6.47-5.38c-1.15-2.61-0.71-5.34,0.44-8.33c0.8-2.09,1.56-4.07,1.53-5.81
			c-0.04-1.84-0.94-3.94-1.81-5.97c-1.24-2.89-2.51-5.87-1.53-8.4c0.99-2.53,3.95-3.87,6.82-5.16c2.01-0.91,4.1-1.85,5.37-3.18v0
			c1.2-1.26,1.98-3.22,2.8-5.3c1.18-2.98,2.39-6.07,5.01-7.21c2.61-1.15,5.71,0.04,8.7,1.19c2.09,0.8,4.07,1.57,5.81,1.53
			c1.84-0.04,3.94-0.94,5.97-1.81c2.89-1.24,5.87-2.51,8.4-1.53c2.53,0.99,3.87,3.95,5.16,6.82c0.91,2.01,1.85,4.1,3.18,5.37
			c1.26,1.2,3.22,1.98,5.3,2.8c2.98,1.18,6.07,2.39,7.21,5.01c1.15,2.61-0.04,5.71-1.19,8.7c-0.8,2.09-1.56,4.07-1.53,5.81
			c0.04,1.84,0.94,3.94,1.81,5.97c1.24,2.89,2.51,5.87,1.53,8.4c-0.99,2.53-3.95,3.87-6.82,5.16c-2.01,0.91-4.1,1.85-5.37,3.18
			c-1.2,1.26-1.98,3.22-2.8,5.3c-1.18,2.98-2.39,6.07-5.01,7.21c-2.61,1.15-5.71-0.04-8.7-1.19c-2.04-0.79-3.98-1.53-5.69-1.53
			c-0.04,0-0.08,0-0.12,0c-1.84,0.04-3.94,0.94-5.97,1.81C-7.46,130.95-9.69,131.91-11.73,131.91z M-22.91,74.41l0.08,0.07
			c-1.3,1.36-3.4,2.31-5.44,3.23c-2.83,1.28-5.75,2.6-6.71,5.05c-0.95,2.45,0.31,5.39,1.53,8.24c0.88,2.05,1.78,4.17,1.82,6.05
			c0.04,1.79-0.73,3.78-1.54,5.9c-1.13,2.95-1.56,5.63-0.45,8.17c1.11,2.53,3.41,4.11,6.35,5.26c2.1,0.83,4.09,1.61,5.37,2.84
			c1.36,1.3,2.31,3.4,3.23,5.44c1.28,2.83,2.6,5.75,5.05,6.71c2.45,0.95,5.39-0.31,8.24-1.53c2.05-0.88,4.17-1.78,6.05-1.82
			c1.79-0.04,3.78,0.73,5.9,1.54c2.95,1.13,6.01,2.31,8.54,1.2c2.53-1.11,3.73-4.15,4.89-7.1c0.83-2.1,1.61-4.09,2.84-5.37
			c1.3-1.36,3.4-2.31,5.44-3.23c2.83-1.28,5.75-2.6,6.71-5.05c0.95-2.45-0.31-5.39-1.53-8.24c-0.88-2.05-1.78-4.17-1.82-6.05
			c-0.04-1.79,0.73-3.78,1.54-5.9c1.13-2.95,2.31-6.01,1.2-8.54c-1.11-2.53-4.15-3.73-7.1-4.89c-2.1-0.83-4.09-1.61-5.37-2.84
			c-1.36-1.3-2.31-3.4-3.23-5.44c-1.28-2.83-2.6-5.75-5.05-6.71c-2.45-0.95-5.39,0.31-8.24,1.53c-2.05,0.88-4.17,1.78-6.05,1.82
			c-1.78,0.04-3.78-0.73-5.9-1.54c-2.95-1.13-6.01-2.31-8.54-1.2c-2.53,1.11-3.73,4.15-4.89,7.1c-0.83,2.1-1.61,4.09-2.84,5.37
			L-22.91,74.41z"/>
	</g>
	<g class="st26">
		<path class="st28" d="M-7.7,74.29c2.7-2.52,11.8-3.1,14.92-1.04c7.41,4.9,18.95,23.29,16.07,31.69c-0.83,2.42-6.28,4.26-8.12,6.24
			c-1.79,1.94-2.74,7.5-5,8.85c-2.33,1.38-7.89-0.05-10.14-1.26c-5.6-3.04-16.8-4.82-18.75-17.26c-0.5-3.17-5.79-8.67-4.86-11.87
			c1.02-3.55,8.47-3.68,11.43-6.25C-10.04,81.54-9.53,76-7.7,74.29z"/>
		<path class="st29" d="M-15.07,81.03c2.3-2.15,3.37-8.97,6.08-9.53c5.95-1.24,13.88-2.27,17.26-1.21c0.5,0.16,0.99,0.34,1.47,0.64
			c2.65,1.61,4.42,5.46,6.82,8.29c2.01,2.37,4.66,4.32,6.15,7.32c1.57,3.17,1.62,6.67,2.19,9.72c0.62,3.36,2,6.82,1.35,9.56
			c-0.08,0.31-0.2,0.62-0.38,0.92c-1.56,2.66-6.76,4.05-8.78,6.19c-2.08,2.22-2.88,8.17-5.72,9.65c-2.89,1.5-8.33-0.9-11.14-1.62
			c-2.41-0.62-5.23-0.14-7.99-1.24c-2.6-1.04-4.41-3.62-6.62-5.42c-2.12-1.74-5.29-4.41-6.73-7.22c-1.28-2.52-0.67-4.02-1.02-7.08
			c-0.39-3.44-5.33-8.81-4.2-12.25C-25.14,84.07-17.95,83.72-15.07,81.03z"/>
		<path class="st30" d="M-17.98,78.67c2.49-2.47,4.26-10.23,7.7-9.98c9.42,0.69,16.05-1.59,19.59-1.38c0.62,0.04,1.2,0.14,1.77,0.41
			c3.28,1.58,4.58,6.83,7.23,9.62c2.4,2.53,6.11,3.97,7.73,7.47c1.66,3.58,0.55,7.74,0.89,11.2c0.34,3.48,2.79,7.45,2.26,10.67
			c-0.06,0.37-0.17,0.72-0.34,1.07c-1.55,3.29-7.47,4.4-9.86,6.92c-2.38,2.51-3.02,8.83-6.44,10.44c-3.44,1.63-8.81-1.68-12.14-1.98
			c-3.21-0.29-6.74,1.33-10.08,0.01c-3.26-1.28-5.05-4.95-7.59-7.23c-2.46-2.2-5.75-3.85-7.34-7.26c-1.52-3.25-0.72-6.72-0.94-10.18
			c-0.23-3.72-4.87-8.95-3.54-12.63C-27.73,82.06-20.8,81.47-17.98,78.67z"/>
		<path class="st31" d="M-20.89,76.32c2.67-2.79,5.07-11.42,9.32-10.42c15.24,3.56,20.08-2.89,23.99-1.36
			c3.92,1.53,4.75,8.18,7.64,10.95c2.79,2.67,7.56,3.62,9.31,7.62c1.75,3.99-0.49,8.82-0.41,12.68c0.08,4,4.41,9.1,2.89,13.01
			c-1.53,3.92-8.18,4.75-10.95,7.64c-2.67,2.79-3.17,9.49-7.16,11.24c-3.99,1.75-9.27-2.42-13.14-2.34c-4,0.08-8.26,2.79-12.17,1.26
			c-3.92-1.53-5.59-6.56-8.48-9.32c-2.79-2.67-7.52-3.67-9.27-7.67c-1.75-3.99,0.45-8.76,0.37-12.63c-0.08-4-4.41-9.1-2.89-13.01
			C-30.31,80.04-23.66,79.21-20.89,76.32z"/>
	</g>
	<g class="st26">
		<path class="st11" d="M5.67,117.31c-1.85,0-4.61-0.47-8.65-2.03c-4.09-1.59-8.23-3.91-9.42-5.29c-1.57-1.81-2.52-5.27-3.28-8.04
			c-0.17-0.6-0.32-1.17-0.47-1.68c-0.34-1.14-1.3-2.44-2.31-3.81c-1.5-2.03-3.05-4.13-2.56-5.8c0.52-1.83,3.16-2.65,5.71-3.44
			c1.8-0.56,3.66-1.13,4.74-2.06c0.97-0.82,1.59-2.48,2.19-4.08c0.56-1.49,1.08-2.89,1.86-3.58l0.05,0.05l-0.05-0.05
			c1.08-0.96,3.4-1.61,6.2-1.74c2.7-0.12,5.2,0.26,6.51,1.01c3.14,1.78,7.09,6.55,10.05,12.17c3.17,5.99,4.51,11.55,3.6,14.86
			c-0.36,1.3-2.22,2.38-4.01,3.43c-1.19,0.69-2.3,1.34-2.94,2.02c-0.66,0.7-1.19,1.98-1.75,3.32c-0.75,1.8-1.53,3.67-2.68,4.22
			C7.93,117.05,7.05,117.31,5.67,117.31z M0.68,75.88c-0.33,0-0.66,0.01-1,0.02c-2.77,0.13-5.06,0.77-6.12,1.7
			c-0.75,0.67-1.27,2.06-1.82,3.53c-0.6,1.62-1.23,3.29-2.23,4.13c-1.1,0.94-2.98,1.52-4.79,2.08c-2.51,0.78-5.11,1.58-5.62,3.34
			c-0.46,1.61,1.06,3.68,2.54,5.68c1.02,1.38,1.98,2.69,2.33,3.85c0.15,0.5,0.31,1.08,0.47,1.68c0.76,2.76,1.7,6.2,3.25,7.99
			c1.18,1.36,5.3,3.67,9.37,5.25c1.82,0.7,5.62,2.02,8.67,2.02c1,0,1.92-0.14,2.66-0.5c1.1-0.53,1.87-2.37,2.61-4.15
			c0.57-1.36,1.1-2.64,1.77-3.37c0.65-0.69,1.78-1.35,2.97-2.05c1.77-1.03,3.6-2.1,3.95-3.35c0.9-3.28-0.44-8.8-3.59-14.76
			c-2.96-5.59-6.88-10.35-10-12.11C4.99,76.25,2.96,75.88,0.68,75.88z"/>
	</g>
	<g class="st26">
		<path class="st9" d="M4.29,113.95c-2.49,0-5.5-0.95-6.96-1.46c-3.45-1.23-6.8-3.01-7.79-4.16c-1.32-1.52-2.23-4.75-2.9-7.1
			c-0.14-0.51-0.28-0.99-0.4-1.4c-0.29-0.95-1.08-2.03-1.91-3.17c-1.23-1.69-2.51-3.44-2.11-4.83c0.44-1.56,2.69-2.31,4.86-3.03
			c1.5-0.5,3.04-1.01,3.98-1.78c0.85-0.7,1.43-2.05,1.98-3.35c0.51-1.2,0.99-2.33,1.66-2.88l0,0c0.91-0.75,2.88-1.28,5.14-1.37
			c2.26-0.09,4.28,0.28,5.28,0.96c2.54,1.73,5.86,5.84,8.26,10.22c2.74,5.01,3.81,9.4,2.93,12.06c-0.35,1.07-1.86,2-3.33,2.89
			c-0.97,0.6-1.89,1.16-2.45,1.74c-0.56,0.59-1.03,1.64-1.53,2.75c-0.66,1.48-1.34,3-2.3,3.47C6.05,113.82,5.2,113.95,4.29,113.95z
			 M0.5,79.52c-2.28,0-4.67,0.47-5.73,1.35c-0.64,0.53-1.12,1.65-1.62,2.83c-0.56,1.32-1.14,2.68-2.02,3.4
			c-0.95,0.79-2.51,1.3-4.02,1.81c-2.14,0.71-4.36,1.45-4.78,2.95c-0.38,1.34,0.88,3.06,2.09,4.73c0.84,1.15,1.63,2.24,1.93,3.21
			c0.13,0.41,0.26,0.89,0.41,1.4c0.66,2.34,1.57,5.55,2.88,7.06c0.97,1.13,4.3,2.9,7.74,4.12c4.18,1.48,7.57,1.85,9.3,1.02
			c0.92-0.45,1.59-1.95,2.24-3.41c0.5-1.12,0.97-2.18,1.55-2.79c0.56-0.59,1.49-1.16,2.47-1.76c1.44-0.88,2.94-1.79,3.28-2.82
			c0.86-2.62-0.2-6.98-2.93-11.96c-2.39-4.37-5.7-8.46-8.23-10.18C4.11,79.82,2.34,79.52,0.5,79.52z"/>
	</g>
	<g class="st26">
		<path class="st7" d="M2.83,110.58c-1.45,0-3.31-0.35-5.42-1.02c-2.86-0.92-5.51-2.25-6.3-3.17c-0.95-1.1-1.54-3.4-2.01-5.24
			c-0.17-0.65-0.32-1.27-0.48-1.75c-0.25-0.8-1.04-1.74-1.8-2.65c-1.1-1.31-2.23-2.67-1.93-3.75c0.36-1.28,2.37-1.96,4.32-2.61
			c1.31-0.44,2.67-0.9,3.47-1.52c0.73-0.58,1.26-1.62,1.77-2.62c0.47-0.92,0.91-1.78,1.46-2.19c1.61-1.19,6.47-1.24,8.13-0.09
			c2.02,1.4,4.54,4.56,6.43,8.05c2.13,3.93,2.97,7.38,2.31,9.47c-0.28,0.88-1.49,1.65-2.66,2.4c-0.76,0.48-1.47,0.94-1.93,1.41
			c-0.47,0.48-0.87,1.3-1.29,2.17c-0.57,1.16-1.16,2.36-1.93,2.73C4.44,110.45,3.71,110.58,2.83,110.58z M0.12,83.21
			c-1.65,0-3.32,0.31-4.14,0.91c-0.54,0.4-0.97,1.25-1.43,2.15c-0.51,1.01-1.05,2.06-1.8,2.65c-0.81,0.64-2.18,1.1-3.5,1.54
			c-1.92,0.64-3.91,1.31-4.26,2.54c-0.29,1.03,0.83,2.37,1.91,3.66c0.77,0.92,1.56,1.87,1.82,2.69c0.15,0.49,0.31,1.1,0.48,1.76
			c0.47,1.83,1.05,4.12,1.98,5.2c0.78,0.91,3.41,2.23,6.25,3.14c3.37,1.08,6.1,1.31,7.5,0.64c0.74-0.36,1.32-1.54,1.88-2.69
			c0.43-0.88,0.84-1.7,1.31-2.2c0.46-0.48,1.18-0.94,1.95-1.42c1.16-0.74,2.35-1.5,2.62-2.35c0.65-2.07-0.19-5.49-2.31-9.4
			c-1.86-3.42-4.43-6.65-6.4-8.02C3.2,83.48,1.67,83.21,0.12,83.21z"/>
	</g>
	<g class="st26">
		<path class="st5" d="M1.67,107.16c-1.47,0-3.2-0.48-4.04-0.74c-2.12-0.67-4.09-1.65-4.67-2.35c-0.72-0.85-1.19-2.52-1.57-3.87
			c-0.13-0.46-0.25-0.9-0.37-1.25c-0.2-0.61-0.74-1.3-1.26-1.97c-0.77-0.99-1.56-2.02-1.34-2.83c0.28-1.03,1.85-1.65,3.36-2.24
			c0.93-0.37,1.9-0.75,2.53-1.22c0.61-0.45,1.08-1.16,1.54-1.85c0.43-0.65,0.83-1.26,1.29-1.53l0.02,0.04l-0.02-0.04
			c1.24-0.75,4.68-0.61,5.83,0.23c2.97,2.16,7.28,9.43,6.3,12.78c-0.2,0.69-1.12,1.32-2.01,1.92c-0.54,0.37-1.05,0.71-1.4,1.07
			c-0.36,0.36-0.69,0.95-1.04,1.57c-0.48,0.86-0.98,1.74-1.58,2.01C2.8,107.08,2.26,107.16,1.67,107.16z M-0.29,86.9
			c-1.01,0-1.97,0.16-2.52,0.48c-0.44,0.26-0.84,0.87-1.26,1.51c-0.46,0.7-0.94,1.42-1.56,1.87c-0.64,0.47-1.61,0.86-2.55,1.23
			c-1.5,0.59-3.04,1.2-3.31,2.19c-0.21,0.78,0.57,1.79,1.33,2.76c0.52,0.67,1.06,1.37,1.27,1.99c0.12,0.35,0.24,0.79,0.37,1.25
			c0.37,1.34,0.84,3,1.55,3.84c0.98,1.16,5.71,3.06,8.65,3.06c0.6,0,1.13-0.08,1.53-0.26c0.58-0.26,1.07-1.13,1.54-1.98
			c0.35-0.63,0.69-1.22,1.06-1.59c0.36-0.36,0.87-0.71,1.41-1.08c0.88-0.6,1.78-1.21,1.98-1.88c0.98-3.32-3.31-10.54-6.27-12.69
			C2.3,87.14,0.97,86.9-0.29,86.9z"/>
	</g>
	<g class="st26">
		<path class="st3" d="M-0.01,103.89c-0.47,0-1-0.07-1.58-0.24c-1.78-0.53-3-1.16-3.61-1.9c-0.5-0.6-0.86-1.68-1.15-2.54
			c-0.08-0.25-0.16-0.49-0.24-0.7c-0.15-0.39-0.43-0.82-0.7-1.24c-0.45-0.69-0.91-1.4-0.77-1.96c0.21-0.81,1.39-1.4,2.53-1.97
			c0.52-0.26,1.06-0.53,1.48-0.81c0.43-0.29,0.81-0.65,1.18-1c0.43-0.42,0.85-0.81,1.24-0.95h0c0.81-0.29,2.65-0.19,3.54,0.55
			c0.57,0.48,1.51,1.49,1.79,2.26c0.15,0.41,0.21,0.99,0.27,1.54c0.06,0.58,0.12,1.17,0.29,1.56c0.14,0.32,0.42,0.67,0.69,1.01
			c0.44,0.56,0.9,1.14,0.81,1.65c-0.1,0.53-0.75,1.02-1.39,1.5c-0.3,0.22-0.61,0.45-0.84,0.68c-0.25,0.24-0.49,0.57-0.74,0.91
			c-0.39,0.53-0.79,1.09-1.28,1.35C1.18,103.75,0.66,103.89-0.01,103.89z M-1.61,90.64c-0.38,0.14-0.79,0.53-1.22,0.94
			c-0.37,0.35-0.75,0.72-1.19,1.01c-0.42,0.28-0.96,0.55-1.48,0.81c-1.13,0.56-2.29,1.15-2.49,1.93c-0.14,0.53,0.32,1.23,0.76,1.91
			c0.27,0.42,0.56,0.85,0.7,1.25c0.08,0.21,0.16,0.45,0.24,0.7c0.29,0.86,0.64,1.93,1.14,2.52c0.6,0.73,1.81,1.36,3.58,1.88
			c0.7,0.21,2.13,0.42,3.04-0.06c0.47-0.25,0.87-0.8,1.26-1.33c0.25-0.35,0.49-0.68,0.75-0.92c0.24-0.23,0.55-0.46,0.85-0.68
			c0.62-0.47,1.27-0.95,1.36-1.46c0.09-0.48-0.36-1.05-0.79-1.59c-0.27-0.34-0.55-0.7-0.7-1.03c-0.18-0.4-0.24-1-0.29-1.58
			c-0.06-0.55-0.11-1.12-0.26-1.52c-0.28-0.76-1.21-1.77-1.77-2.24C1,90.45-0.81,90.35-1.61,90.64L-1.61,90.64z"/>
	</g>
	<g id="XMLID_1_" class="st26">
		<path class="st1" d="M-1.57,100.66c-0.12,0-0.24-0.01-0.34-0.04c-0.55-0.16-1.26-0.83-1.85-1.75c-0.6-0.93-0.89-1.84-0.77-2.39
			c0.12-0.55,0.77-1.26,1.7-1.85c0.95-0.6,1.88-0.9,2.44-0.78c0.51,0.11,1.35,0.77,2.05,1.98c0.51,0.87,0.72,1.67,0.57,2.16
			c-0.17,0.55-0.86,1.29-1.76,1.88C-0.3,100.38-1.03,100.66-1.57,100.66z M-4.49,96.49c-0.25,1.14,1.4,3.73,2.6,4.09
			c0.1,0.03,0.21,0.04,0.32,0.04c1.26,0,3.45-1.59,3.76-2.64c0.14-0.47-0.07-1.27-0.57-2.12c-0.6-1.02-1.43-1.83-2.02-1.96
			c-0.55-0.12-1.47,0.17-2.41,0.77C-3.73,95.25-4.37,95.95-4.49,96.49L-4.49,96.49z"/>
	</g>
</g>
</svg>
